<svg width="238" height="227" viewBox="0 0 238 227" fill="none" xmlns="http://www.w3.org/2000/svg">
<path d="M60.7856 187.188C63.9579 187.188 66.5296 184.616 66.5296 181.444C66.5296 178.272 63.9579 175.7 60.7856 175.7C57.6133 175.7 55.0416 178.272 55.0416 181.444C55.0416 184.616 57.6133 187.188 60.7856 187.188Z" fill="#CCCCCC"/>
<path d="M177.625 174.482C181.928 174.482 185.416 170.994 185.416 166.692C185.416 162.389 181.928 158.901 177.625 158.901C173.323 158.901 169.835 162.389 169.835 166.692C169.835 170.994 173.323 174.482 177.625 174.482Z" fill="#CCCCCC"/>
<path d="M128.927 161.61V182.26C131.929 183.111 134.133 185.873 134.133 189.153C134.133 189.184 134.128 189.215 134.128 189.247C134.598 189.189 135.073 189.153 135.553 189.153C141.156 189.153 145.851 192.991 147.182 198.176C147.986 198.056 148.801 197.993 149.631 197.993C152.242 197.993 154.712 198.589 156.916 199.649C160.853 196.046 166.096 193.847 171.85 193.847C175.296 193.847 178.555 194.636 181.463 196.04C183.134 184.218 193.286 175.122 205.567 175.122C219.013 175.122 229.917 186.025 229.917 199.471C229.917 206.27 227.128 212.416 222.632 216.834C224.12 219.079 225.165 221.638 225.666 224.39H135.772H96.7551H6.86152C7.36281 221.638 8.40718 219.079 9.89539 216.834C5.39941 212.415 2.61096 206.269 2.61096 199.471C2.61096 186.024 13.5141 175.121 26.9603 175.121C39.242 175.121 49.3932 184.218 51.0642 196.04C53.9727 194.635 57.2311 193.847 60.6775 193.847C66.432 193.847 71.6747 196.045 75.6119 199.648C77.8155 198.588 80.2855 197.993 82.8964 197.993C83.7266 197.993 84.5465 198.055 85.3454 198.176C86.677 192.99 91.3714 189.152 96.9744 189.152C97.4548 189.152 97.93 189.189 98.3999 189.246C98.3999 189.215 98.3947 189.184 98.3947 189.152C98.3947 185.972 100.468 183.272 103.34 182.338V161.61H128.927V161.61V161.61Z" fill="#CCCCCC"/>
<path d="M156.99 126.056V161.611H139.758V113.524L156.99 126.056Z" fill="#FFDD09"/>
<path d="M92.7671 113.524V161.611H75.5352V126.056L92.7671 113.524Z" fill="#FCC309"/>
<path d="M139.758 58.0106V161.611H92.7671V58.0106C92.7671 55.3945 92.8976 52.794 93.1587 50.2144H139.367C139.628 52.794 139.758 55.3945 139.758 58.0106Z" fill="#FFDD09"/>
<path d="M139.367 50.2144H93.1587C94.9915 32.1991 103.127 15.3118 116.265 2.61234C123.774 9.87066 129.649 18.4971 133.643 27.9225C136.636 34.9876 138.578 42.4966 139.367 50.2144Z" fill="#FCC309"/>
<path opacity="0.25" d="M116.265 2.61234C116.265 2.61234 109.597 21.0088 109.597 50.2144C109.597 79.42 109.597 160.88 109.597 160.88L92.7671 161.611V58.0106C92.7671 55.3944 92.8976 52.794 93.1587 50.2144C94.9916 32.1991 103.127 15.3118 116.265 2.61234Z" fill="black"/>
<path d="M142.369 113.523H137.147V58.0101C137.147 55.4916 137.02 52.9574 136.769 50.4765C136.011 43.0621 134.151 35.8153 131.239 28.9397C127.657 20.4866 122.625 12.8821 116.266 6.30364C104.702 18.2835 97.4459 33.8717 95.7566 50.4776C95.506 52.9569 95.3786 55.4916 95.3786 58.0095V113.523H90.1567V58.0095C90.1567 55.3161 90.293 52.605 90.5614 49.9502C92.4622 31.266 100.947 13.7876 114.451 0.733534C115.463 -0.244512 117.068 -0.244512 118.08 0.733534C125.81 8.20543 131.855 17.0099 136.048 26.9021C139.163 34.2581 141.154 42.012 141.964 49.9476C142.233 52.6044 142.37 55.3161 142.37 58.009L142.369 113.523Z" fill="#333333"/>
<path d="M139.758 159H92.7671V164.222H139.758V159Z" fill="#333333"/>
<path d="M92.7671 164.222H75.5351C74.0934 164.222 72.9242 163.053 72.9242 161.611V126.056C72.9242 125.221 73.3242 124.436 73.9994 123.945L91.2314 111.413C92.0256 110.834 93.0767 110.751 93.9519 111.197C94.8271 111.643 95.378 112.542 95.378 113.524V161.612C95.378 163.053 94.2088 164.222 92.7671 164.222ZM78.146 159H90.1562V118.651L78.146 127.386V159Z" fill="#333333"/>
<path d="M156.99 164.222H139.758C138.317 164.222 137.147 163.053 137.147 161.611V149.392C137.147 147.951 138.317 146.781 139.758 146.781C141.2 146.781 142.369 147.951 142.369 149.392V159H154.379V127.386L142.369 118.651V141.733C142.369 143.175 141.2 144.344 139.758 144.344C138.317 144.344 137.147 143.175 137.147 141.733V113.524C137.147 112.541 137.698 111.643 138.573 111.197C139.45 110.751 140.5 110.834 141.294 111.412L158.526 123.944C159.201 124.435 159.601 125.221 159.601 126.056V161.611C159.601 163.053 158.432 164.222 156.99 164.222Z" fill="#333333"/>
<path d="M129.408 42.2099C128.264 42.2099 127.214 41.4522 126.893 40.2961C125.62 35.7087 123.853 31.2436 121.639 27.0243C120.969 25.7476 121.462 24.169 122.738 23.4996C124.015 22.8302 125.593 23.3215 126.263 24.5988C128.648 29.1454 130.553 33.9568 131.924 38.9003C132.31 40.2898 131.496 41.729 130.107 42.1143C129.874 42.1786 129.639 42.2099 129.408 42.2099Z" fill="white"/>
<path d="M119.61 21.2323C118.781 21.2323 117.965 20.8381 117.459 20.1039C116.448 18.6386 115.366 17.1974 114.241 15.8188C113.33 14.7019 113.496 13.057 114.613 12.1453C115.73 11.233 117.375 11.3996 118.287 12.5171C119.5 14.0032 120.667 15.5578 121.757 17.1379C122.576 18.3248 122.278 19.9509 121.091 20.7696C120.638 21.0824 120.122 21.2323 119.61 21.2323Z" fill="white"/>
<path d="M60.7856 189.799C56.1789 189.799 52.4307 186.051 52.4307 181.444C52.4307 176.837 56.1789 173.089 60.7856 173.089C65.3923 173.089 69.1405 176.837 69.1405 181.444C69.1405 186.051 65.3923 189.799 60.7856 189.799ZM60.7856 178.311C59.0577 178.311 57.6525 179.716 57.6525 181.444C57.6525 183.172 59.0577 184.577 60.7856 184.577C62.5135 184.577 63.9187 183.172 63.9187 181.444C63.9187 179.716 62.5135 178.311 60.7856 178.311Z" fill="#333333"/>
<path d="M177.625 177.093C171.89 177.093 167.224 172.427 167.224 166.692C167.224 160.957 171.89 156.29 177.625 156.29C183.36 156.29 188.027 160.957 188.027 166.692C188.027 172.427 183.36 177.093 177.625 177.093ZM177.625 161.512C174.769 161.512 172.446 163.836 172.446 166.692C172.446 169.548 174.769 171.871 177.625 171.871C180.481 171.871 182.805 169.547 182.805 166.692C182.805 163.835 180.481 161.512 177.625 161.512Z" fill="#333333"/>
<path d="M49.0177 208.913C48.614 208.913 48.2041 208.819 47.8208 208.621C46.5399 207.959 46.0381 206.384 46.7002 205.102C48.2694 202.066 48.4981 197.586 48.4543 196.116C48.4109 194.675 49.544 193.471 50.9853 193.428C52.4234 193.382 53.6301 194.517 53.6735 195.959C53.6818 196.23 53.8447 202.652 51.3393 207.5C50.8751 208.397 49.9628 208.913 49.0177 208.913Z" fill="#333333"/>
<path d="M85.8148 207.832C84.7412 207.832 83.7354 207.164 83.3548 206.095C81.8431 201.847 82.7026 197.987 82.8054 197.561C83.1438 196.159 84.5547 195.299 85.9568 195.636C87.3542 195.974 88.2147 197.377 87.8847 198.774C87.8659 198.858 87.2842 201.56 88.2753 204.345C88.7583 205.703 88.0492 207.196 86.6905 207.68C86.4007 207.783 86.1051 207.832 85.8148 207.832Z" fill="#333333"/>
<path d="M70.5874 207.274C70.2036 207.274 69.8136 207.188 69.4449 207.009C68.1489 206.377 67.6105 204.814 68.2429 203.517C70.2616 199.378 74.072 197.488 74.4996 197.286C75.8035 196.67 77.3601 197.228 77.9753 198.532C78.5888 199.831 78.0364 201.381 76.7424 202.002C76.6651 202.04 74.155 203.308 72.9362 205.807C72.4835 206.734 71.5545 207.274 70.5874 207.274Z" fill="#333333"/>
<path d="M75.6124 202.259C74.9728 202.259 74.3409 202.024 73.8495 201.574C70.2439 198.275 65.5662 196.458 60.6775 196.458C57.7084 196.458 54.8557 197.108 52.1994 198.391C51.449 198.753 50.5702 198.736 49.8344 198.343C49.0992 197.951 48.5953 197.23 48.4788 196.405C47.4804 189.341 43.0617 183.212 36.6587 180.011C35.3689 179.367 34.8457 177.798 35.4906 176.509C36.135 175.218 37.7031 174.696 38.9934 175.341C45.941 178.813 51.0046 185.07 52.991 192.452C55.4578 191.644 58.0316 191.236 60.6775 191.236C66.3025 191.236 71.7076 193.133 76.0756 196.613C78.4474 195.721 80.9596 195.302 83.5423 195.393C85.7072 190.341 90.5646 186.885 96.1284 186.565C96.9785 183.444 99.3414 180.893 102.531 179.855C103.904 179.408 105.376 180.159 105.822 181.529C106.268 182.901 105.519 184.374 104.148 184.82C102.291 185.425 101.036 187.131 101.006 189.081C101.009 189.136 101.01 189.191 101.01 189.246C101.01 189.994 100.69 190.705 100.13 191.201C99.5701 191.697 98.826 191.928 98.0829 191.838C97.6699 191.788 97.307 191.763 96.9733 191.763C92.6831 191.763 88.9411 194.667 87.8733 198.825C87.5406 200.122 86.2822 200.96 84.9563 200.758C84.2775 200.656 83.584 200.604 82.8953 200.604C80.7402 200.604 78.6698 201.074 76.7424 202.002C76.3826 202.174 75.9962 202.259 75.6124 202.259Z" fill="#333333"/>
<path d="M29.8771 227H6.86147C6.08707 227 5.35288 226.656 4.85681 226.062C4.36074 225.467 4.15448 224.683 4.29285 223.921C4.72626 221.542 5.51424 219.285 6.64267 217.189C2.34459 212.28 0 206.063 0 199.471C0 184.605 12.0942 172.511 26.9602 172.511C28.402 172.511 29.5711 173.68 29.5711 175.122C29.5711 176.564 28.402 177.733 26.9602 177.733C14.9736 177.733 5.22182 187.484 5.22182 199.471C5.22182 205.346 7.53142 210.85 11.7251 214.972C12.6169 215.848 12.7621 217.234 12.0713 218.276C11.3402 219.379 10.7418 220.55 10.2797 221.779H29.8771C31.3189 221.779 32.488 222.948 32.488 224.39C32.488 225.831 31.3189 227 29.8771 227Z" fill="#333333"/>
<path d="M45.1948 227H40.3207C38.879 227 37.7098 225.831 37.7098 224.389C37.7098 222.947 38.879 221.778 40.3207 221.778H45.1948C46.6365 221.778 47.8057 222.947 47.8057 224.389C47.8057 225.831 46.6365 227 45.1948 227Z" fill="#333333"/>
<path d="M177.132 227H55.2902C53.8485 227 52.6793 225.831 52.6793 224.389C52.6793 222.947 53.8485 221.778 55.2902 221.778H177.132C178.574 221.778 179.743 222.947 179.743 224.389C179.743 225.831 178.574 227 177.132 227Z" fill="#333333"/>
<path d="M225.666 227H185.487C184.046 227 182.876 225.831 182.876 224.389C182.876 222.947 184.046 221.778 185.487 221.778H222.247C221.785 220.549 221.187 219.378 220.456 218.276C219.765 217.233 219.91 215.847 220.802 214.971C223.462 212.358 225.414 209.096 226.446 205.541C226.849 204.157 228.298 203.36 229.682 203.762C231.066 204.165 231.863 205.613 231.461 206.998C230.371 210.75 228.458 214.236 225.883 217.187C227.012 219.284 227.8 221.541 228.234 223.921C228.372 224.683 228.166 225.467 227.67 226.062C227.175 226.656 226.44 227 225.666 227Z" fill="#333333"/>
<path d="M229.917 202.082C228.475 202.082 227.306 200.913 227.306 199.471C227.306 197.994 227.157 196.52 226.864 195.088C226.575 193.675 227.485 192.296 228.898 192.007C230.307 191.717 231.69 192.627 231.98 194.041C232.343 195.816 232.527 197.643 232.527 199.472C232.527 200.913 231.358 202.082 229.917 202.082Z" fill="#333333"/>
<path d="M156.915 202.259C156.531 202.259 156.144 202.174 155.784 202.001C153.856 201.074 151.786 200.604 149.631 200.604C148.947 200.604 148.252 200.655 147.567 200.758C146.246 200.955 144.986 200.121 144.653 198.825C143.585 194.667 139.843 191.763 135.553 191.763C135.219 191.763 134.856 191.787 134.444 191.838C133.702 191.928 132.956 191.696 132.397 191.201C131.837 190.705 131.517 189.994 131.517 189.246C131.517 189.203 131.519 189.145 131.521 189.09C131.494 187.088 130.142 185.317 128.214 184.771C126.827 184.377 126.021 182.934 126.414 181.547C126.808 180.16 128.249 179.354 129.638 179.747C132.967 180.69 135.497 183.332 136.392 186.564C141.959 186.881 146.819 190.338 148.985 195.392C151.572 195.304 154.079 195.72 156.451 196.612C160.819 193.133 166.224 191.235 171.849 191.235C174.496 191.235 177.071 191.643 179.537 192.452C182.665 180.881 193.328 172.509 205.567 172.509C215.064 172.509 223.683 177.361 228.621 185.488C229.37 186.72 228.979 188.327 227.746 189.076C226.514 189.824 224.908 189.432 224.159 188.2C220.175 181.645 213.225 177.731 205.567 177.731C194.804 177.731 185.552 185.759 184.048 196.404C183.932 197.23 183.428 197.95 182.692 198.342C181.957 198.734 181.077 198.752 180.327 198.39C177.671 197.107 174.819 196.457 171.849 196.457C166.961 196.457 162.283 198.274 158.678 201.573C158.186 202.025 157.555 202.259 156.915 202.259Z" fill="#333333"/>
<path d="M183.51 208.913C182.565 208.913 181.652 208.398 181.188 207.5C178.683 202.652 178.846 196.23 178.854 195.959C178.897 194.517 180.11 193.374 181.542 193.428C182.982 193.471 184.115 194.672 184.074 196.112C184.072 196.166 183.951 201.472 185.827 205.103C186.489 206.384 185.988 207.959 184.707 208.621C184.323 208.819 183.913 208.913 183.51 208.913Z" fill="#333333"/>
<path d="M146.713 207.832C146.422 207.832 146.127 207.783 145.837 207.68C144.479 207.196 143.77 205.703 144.253 204.345C145.255 201.53 144.649 198.799 144.643 198.772C144.323 197.372 145.191 195.969 146.589 195.64C147.988 195.313 149.385 196.165 149.722 197.56C149.825 197.987 150.685 201.846 149.173 206.095C148.792 207.164 147.786 207.832 146.713 207.832Z" fill="#333333"/>
<path d="M161.941 207.274C160.973 207.274 160.044 206.734 159.592 205.807C158.354 203.268 155.825 202.02 155.8 202.008C154.496 201.392 153.938 199.836 154.553 198.532C155.168 197.228 156.724 196.669 158.029 197.286C158.457 197.488 162.267 199.378 164.286 203.518C164.917 204.814 164.38 206.377 163.084 207.009C162.714 207.188 162.324 207.274 161.941 207.274Z" fill="#333333"/>
<path d="M111.564 194.625C110.122 194.625 108.953 193.456 108.953 192.014V168.516C108.953 167.074 110.122 165.905 111.564 165.905C113.006 165.905 114.175 167.074 114.175 168.516V192.014C114.175 193.456 113.006 194.625 111.564 194.625Z" fill="white"/>
<path d="M120.963 194.625C119.522 194.625 118.352 193.456 118.352 192.014V168.516C118.352 167.074 119.522 165.905 120.963 165.905C122.405 165.905 123.574 167.074 123.574 168.516V192.014C123.574 193.456 122.405 194.625 120.963 194.625Z" fill="white"/>
<path d="M190.677 227C189.235 227 188.066 225.831 188.066 224.389C188.066 214.744 195.913 206.897 205.558 206.897C207 206.897 208.169 208.066 208.169 209.507C208.169 210.949 207 212.118 205.558 212.118C198.792 212.118 193.288 217.623 193.288 224.389C193.288 225.831 192.119 227 190.677 227Z" fill="#333333"/>
<path d="M203.393 164.34C203.22 164.34 203.053 164.319 202.881 164.288C202.714 164.256 202.552 164.204 202.395 164.136C202.239 164.073 202.087 163.99 201.941 163.896C201.8 163.802 201.67 163.692 201.544 163.572C201.059 163.087 200.782 162.418 200.782 161.729C200.782 161.557 200.798 161.384 200.834 161.217C200.865 161.05 200.918 160.888 200.98 160.731C201.048 160.57 201.126 160.418 201.22 160.277C201.314 160.136 201.424 160 201.544 159.88C201.67 159.76 201.8 159.651 201.941 159.557C202.087 159.463 202.239 159.384 202.395 159.316C202.552 159.254 202.714 159.202 202.881 159.17C203.22 159.102 203.565 159.102 203.904 159.17C204.072 159.202 204.233 159.254 204.39 159.316C204.547 159.384 204.698 159.463 204.844 159.557C204.985 159.651 205.121 159.76 205.241 159.88C205.361 160 205.471 160.136 205.565 160.277C205.659 160.418 205.737 160.57 205.805 160.731C205.868 160.888 205.92 161.05 205.951 161.217C205.988 161.384 206.004 161.557 206.004 161.729C206.004 162.413 205.727 163.087 205.241 163.572C205.121 163.692 204.985 163.802 204.844 163.896C204.698 163.99 204.547 164.073 204.39 164.136C204.233 164.204 204.072 164.256 203.904 164.288C203.732 164.319 203.565 164.34 203.393 164.34Z" fill="#333333"/>
<path d="M234.724 219.691C234.034 219.691 233.361 219.409 232.875 218.923C232.39 218.438 232.113 217.764 232.113 217.08C232.113 216.391 232.39 215.717 232.875 215.232C233.366 214.746 234.034 214.469 234.724 214.469C235.413 214.469 236.087 214.746 236.572 215.232C237.058 215.717 237.335 216.391 237.335 217.08C237.335 217.764 237.058 218.438 236.572 218.923C236.087 219.409 235.413 219.691 234.724 219.691Z" fill="#333333"/>
<path d="M46.7383 168.517C46.0491 168.517 45.3755 168.235 44.8898 167.75C44.4042 167.264 44.1274 166.59 44.1274 165.906C44.1274 165.734 44.1431 165.562 44.1797 165.395C44.211 165.227 44.2632 165.066 44.3259 164.904C44.3938 164.747 44.4721 164.596 44.5661 164.455C44.6653 164.314 44.7697 164.178 44.8898 164.058C45.4956 163.452 46.3989 163.175 47.2501 163.348C47.4172 163.379 47.5791 163.431 47.7357 163.494C47.8924 163.562 48.0438 163.64 48.19 163.734C48.331 163.828 48.4615 163.938 48.5869 164.058C48.707 164.178 48.8114 164.314 48.9106 164.455C49.0046 164.596 49.0829 164.747 49.1508 164.904C49.2135 165.066 49.2657 165.227 49.297 165.395C49.3336 165.562 49.3493 165.734 49.3493 165.906C49.3493 166.59 49.0725 167.264 48.5869 167.75C48.4615 167.87 48.331 167.979 48.19 168.073C48.0438 168.167 47.8924 168.251 47.7357 168.314C47.5791 168.381 47.4172 168.434 47.2501 168.465C47.083 168.496 46.9107 168.517 46.7383 168.517Z" fill="#333333"/>
<path d="M14.3631 160.162C14.1908 160.162 14.0237 160.141 13.8514 160.11C13.6843 160.079 13.5224 160.027 13.3657 159.959C13.2091 159.896 13.0577 159.812 12.9114 159.718C12.7705 159.624 12.6347 159.515 12.5146 159.395C12.029 158.909 11.7522 158.235 11.7522 157.551C11.7522 157.379 11.7679 157.207 11.8044 157.04C11.8357 156.873 11.888 156.711 11.9506 156.554C12.0185 156.392 12.0968 156.241 12.1908 156.1C12.2848 155.959 12.3945 155.823 12.5146 155.703C12.6347 155.583 12.7705 155.473 12.9114 155.379C13.0577 155.285 13.2091 155.207 13.3657 155.139C13.5224 155.076 13.6843 155.024 13.8514 154.993C14.1908 154.92 14.5354 154.92 14.8748 154.993C15.0419 155.024 15.2038 155.076 15.3605 155.139C15.5171 155.207 15.6738 155.285 15.8148 155.379C15.9558 155.473 16.0915 155.583 16.2116 155.703C16.3317 155.823 16.4414 155.959 16.5354 156.1C16.6294 156.241 16.7077 156.392 16.7756 156.554C16.8382 156.711 16.8905 156.873 16.9218 157.04C16.9583 157.207 16.974 157.379 16.974 157.551C16.974 158.235 16.6973 158.909 16.2116 159.395C16.0915 159.515 15.9558 159.624 15.8148 159.718C15.6738 159.812 15.5171 159.896 15.3605 159.959C15.2038 160.027 15.0419 160.079 14.8748 160.11C14.7077 160.141 14.5354 160.162 14.3631 160.162Z" fill="#333333"/>
<path d="M111.85 211.731C110.636 211.731 109.548 210.88 109.295 209.644C108.798 207.224 106.725 205.42 104.254 205.257C102.815 205.162 101.725 203.919 101.82 202.48C101.915 201.042 103.156 199.956 104.597 200.047C109.406 200.363 113.442 203.878 114.41 208.594C114.7 210.007 113.79 211.387 112.377 211.677C112.201 211.713 112.024 211.731 111.85 211.731Z" fill="#333333"/>
<path d="M106.387 220.522C106.24 220.522 106.093 220.51 105.943 220.484C104.522 220.241 103.567 218.892 103.81 217.471C104.714 212.187 108.884 208.091 114.185 207.278C119.135 206.517 124.033 208.784 126.661 213.048C127.418 214.275 127.036 215.884 125.808 216.64C124.58 217.397 122.972 217.014 122.216 215.787C120.691 213.313 117.847 211.998 114.977 212.439C111.901 212.91 109.482 215.286 108.957 218.351C108.74 219.623 107.635 220.522 106.387 220.522Z" fill="#333333"/>
<path d="M139.356 52.8253H130.136C128.694 52.8253 127.525 51.6562 127.525 50.2144C127.525 48.7727 128.694 47.6035 130.136 47.6035H139.356C140.798 47.6035 141.967 48.7727 141.967 50.2144C141.967 51.6562 140.798 52.8253 139.356 52.8253Z" fill="#333333"/>
<path d="M122.477 52.8253H93.1634C91.7217 52.8253 90.5525 51.6562 90.5525 50.2144C90.5525 48.7727 91.7217 47.6035 93.1634 47.6035H122.477C123.919 47.6035 125.088 48.7727 125.088 50.2144C125.088 51.6562 123.919 52.8253 122.477 52.8253Z" fill="#333333"/>
<path d="M116.263 78.5281C121.928 78.5281 126.521 73.9351 126.521 68.2693C126.521 62.6036 121.928 58.0106 116.263 58.0106C110.597 58.0106 106.004 62.6036 106.004 68.2693C106.004 73.9351 110.597 78.5281 116.263 78.5281Z" fill="#AEAEAE"/>
<path d="M116.263 110.863C121.928 110.863 126.521 106.27 126.521 100.604C126.521 94.9386 121.928 90.3456 116.263 90.3456C110.597 90.3456 106.004 94.9386 106.004 100.604C106.004 106.27 110.597 110.863 116.263 110.863Z" fill="#AEAEAE"/>
<path d="M116.263 78.5281C121.928 78.5281 126.521 73.935 126.521 68.2693C126.521 62.6037 121.928 58.0106 116.263 58.0106" fill="white"/>
<path d="M116.263 110.863C121.928 110.863 126.521 106.27 126.521 100.604C126.521 94.9387 121.928 90.3456 116.263 90.3456" fill="white"/>
<path d="M116.263 81.139C109.166 81.139 103.393 75.3658 103.393 68.2693C103.393 61.1729 109.166 55.3997 116.263 55.3997C118.705 55.3997 121.083 56.0879 123.14 57.3897C124.358 58.1615 124.72 59.774 123.949 60.9922C123.178 62.2105 121.565 62.5734 120.347 61.8016C119.128 61.0293 117.715 60.6215 116.263 60.6215C112.046 60.6215 108.615 64.0522 108.615 68.2693C108.615 72.4865 112.046 75.9172 116.263 75.9172C120.48 75.9172 123.911 72.4865 123.911 68.2693C123.911 66.8276 125.08 65.6584 126.522 65.6584C127.964 65.6584 129.133 66.8276 129.133 68.2693C129.132 75.3658 123.359 81.139 116.263 81.139Z" fill="#333333"/>
<path d="M116.263 113.475C109.166 113.475 103.393 107.701 103.393 100.605C103.393 93.5085 109.166 87.7352 116.263 87.7352C119.896 87.7352 123.377 89.2819 125.814 91.9795C126.781 93.0495 126.697 94.7006 125.627 95.6672C124.557 96.6342 122.906 96.5502 121.94 95.4802C120.491 93.8766 118.422 92.957 116.263 92.957C112.045 92.957 108.615 96.3878 108.615 100.605C108.615 104.822 112.045 108.253 116.263 108.253C120.48 108.253 123.911 104.822 123.911 100.605C123.911 99.1632 125.08 97.994 126.521 97.994C127.963 97.994 129.132 99.1632 129.132 100.605C129.132 107.701 123.359 113.475 116.263 113.475Z" fill="#333333"/>
<path d="M131.41 156.389C129.968 156.389 128.799 155.219 128.799 153.778V80.4644C128.799 79.0226 129.968 77.8535 131.41 77.8535C132.851 77.8535 134.021 79.0226 134.021 80.4644V153.778C134.021 155.219 132.852 156.389 131.41 156.389Z" fill="white"/>
<path d="M131.41 72.109C129.968 72.109 128.799 70.9398 128.799 69.4981V62.7097C128.799 61.2679 129.968 60.0988 131.41 60.0988C132.851 60.0988 134.021 61.2679 134.021 62.7097V69.4981C134.021 70.9403 132.852 72.109 131.41 72.109Z" fill="white"/>
<path d="M115.387 145.532C116.285 147.048 117.543 148.119 119.61 148.119C121.408 148.119 122.576 147.227 122.576 145.978C122.576 144.551 121.408 144.015 119.431 143.123L118.352 142.677C115.207 141.339 113.14 139.734 113.14 136.255C113.14 133.043 115.566 130.545 119.431 130.545C122.217 130.545 124.194 131.527 125.542 134.024L122.217 136.165C121.498 134.827 120.689 134.292 119.431 134.292C118.173 134.292 117.364 135.095 117.364 136.165C117.364 137.414 118.173 137.949 120.06 138.752L121.138 139.198C124.823 140.804 126.89 142.321 126.89 145.978C126.89 149.814 123.834 151.955 119.7 151.955C115.656 151.955 113.05 150.081 111.792 147.584L115.387 145.532ZM100.108 145.889C100.827 147.048 101.367 148.119 102.894 148.119C104.332 148.119 105.231 147.584 105.231 145.443V130.635H109.545V145.264C109.545 149.725 106.939 151.687 103.074 151.687C99.5693 151.687 97.5921 149.903 96.6035 147.762L100.108 145.889Z" fill="black"/>
</svg>
