<svg width="146" height="213" viewBox="0 0 146 213" fill="none" xmlns="http://www.w3.org/2000/svg">
<path d="M90.7645 141.921L141.858 141.93L39.7494 39.8224L39.9748 181.901L74.2306 148.645L96.0295 202.391C97.4363 205.859 100.777 207.963 104.303 207.963C105.42 207.963 106.555 207.752 107.654 207.307C112.222 205.454 114.423 200.25 112.57 195.682L90.7645 141.921Z" fill="#FFDD09"/>
<path d="M52.1858 90.4432C49.8978 90.4432 48.0431 88.5885 48.0431 86.3005V75.3646C48.0431 73.0766 49.8978 71.2219 52.1858 71.2219C54.4738 71.2219 56.3285 73.0766 56.3285 75.3646V86.3005C56.3285 88.5885 54.4738 90.4432 52.1858 90.4432Z" fill="white"/>
<path d="M19.9735 69.762C17.6855 69.762 15.8308 67.9073 15.8308 65.6193V54.6835C15.8308 52.3955 17.6855 50.5408 19.9735 50.5408C22.2615 50.5408 24.1162 52.3955 24.1162 54.6835V65.6193C24.1162 67.9073 22.2615 69.762 19.9735 69.762Z" fill="black"/>
<path d="M66.1223 24.8561H55.1864C52.8984 24.8561 51.0437 23.0014 51.0437 20.7134C51.0437 18.4254 52.8984 16.5707 55.1864 16.5707H66.1223C68.4103 16.5707 70.2649 18.4254 70.2649 20.7134C70.2649 23.0014 68.4103 24.8561 66.1223 24.8561Z" fill="black"/>
<path d="M52.1858 154.008C49.8978 154.008 48.0431 152.153 48.0431 149.865V103.388C48.0431 101.1 49.8978 99.2451 52.1858 99.2451C54.4738 99.2451 56.3285 101.1 56.3285 103.388V149.865C56.3285 152.153 54.4738 154.008 52.1858 154.008Z" fill="white"/>
<path d="M39.8224 4.1427H4.1427V39.8224H39.8224V4.1427Z" fill="#FCE600"/>
<path d="M144.787 139.001L43.9651 38.179V4.14269C43.9651 1.85468 42.1104 0 39.8224 0H4.14269C1.85468 0 0 1.85468 0 4.14269V39.8224C0 42.1104 1.85468 43.9651 4.14269 43.9651H35.6134L35.8322 181.907C35.8347 183.571 36.8318 185.071 38.3642 185.718C39.8961 186.365 41.6671 186.032 42.8602 184.874L72.7033 155.902L92.1905 203.947C94.2006 208.903 98.9547 212.106 104.302 212.106C105.988 212.106 107.639 211.782 109.211 211.145C112.445 209.833 114.975 207.34 116.335 204.126C117.695 200.911 117.721 197.359 116.409 194.125L96.9157 146.065L141.856 146.073C141.857 146.073 141.857 146.073 141.857 146.073C143.532 146.073 145.043 145.064 145.684 143.516C146.326 141.968 145.971 140.186 144.787 139.001ZM8.28537 8.28537H35.6797V35.6797H8.28537V8.28537ZM90.7654 137.778C90.765 137.778 90.765 137.778 90.7646 137.778C89.3867 137.778 88.0988 138.464 87.3291 139.606C86.559 140.749 86.4077 142.201 86.926 143.478L108.731 197.239C109.211 198.422 109.202 199.722 108.704 200.898C108.207 202.074 107.281 202.987 106.097 203.467C105.52 203.701 104.916 203.82 104.303 203.82C102.345 203.82 100.605 202.648 99.8686 200.833L78.0698 147.089C77.5519 145.811 76.4326 144.876 75.0841 144.592C74.8004 144.532 74.5149 144.503 74.2307 144.503C73.1644 144.503 72.1258 144.915 71.3454 145.673L44.1022 172.121L43.9083 49.8407L131.854 137.786L90.7654 137.778Z" fill="black"/>
<path d="M12.221 31.4844C10.9626 31.4844 9.9425 29.6457 9.9425 27.3773V16.5352C9.9425 14.2668 10.9626 12.4281 12.221 12.4281C13.4794 12.4281 14.4995 14.2668 14.4995 16.5352V27.3773C14.4995 29.6457 13.4794 31.4844 12.221 31.4844Z" fill="white"/>
</svg>
